<?xml version="1.0" standalone="no"?><!DOCTYPE svg PUBLIC "-//W3C//DTD SVG 1.1//EN" "http://www.w3.org/Graphics/SVG/1.1/DTD/svg11.dtd"><svg t="1675397082963" class="icon" viewBox="0 0 1024 1024" version="1.1" xmlns="http://www.w3.org/2000/svg" p-id="5086" width="200" height="200" xmlns:xlink="http://www.w3.org/1999/xlink"><path d="M746.496 401.92c2.048-36.352-4.096-75.264-23.552-115.712-34.816-72.192-103.424-124.928-182.272-134.144-142.336-16.896-263.68 95.232-263.68 236.032 0 5.12 0 9.728 0.512 14.336 2.048 28.16-10.24 54.272-30.208 73.728-30.208 30.208-47.104 73.728-41.984 121.344 8.704 75.776 76.8 131.072 152.064 131.072H665.6c75.264 0 143.36-54.784 152.064-131.072 5.632-47.616-11.776-90.624-41.984-121.344-18.944-19.456-30.72-45.568-29.184-74.24z" fill="#CCDAFF" p-id="5087"></path><path d="M595.456 769.024H428.544c-11.776 0-25.088 11.264-25.088 25.088 0 44.032 48.64 79.36 108.544 79.36s108.544-35.328 108.544-79.36c0-13.824-13.312-25.088-25.088-25.088z" fill="#7A7AF9" p-id="5088"></path></svg>